# xmcd
# Track frame offsets:
# 150
# 21245
# 37280
# 52327
# 69455
# 84192
# 100197
# 117872
# 131950
# 140902
# 156480
# 172177
# 189922
#
# Disc length: 2706 seconds
# Revision: 0
# Processed by: cddbd v1.5PL3 Copyright (c) Steve Scherf et al.
# Submitted via: VisiTrax 2.9.7.197 - For more info visit www.synapsa.com
#
DISCID=c60a900d
DTITLE=Amanda Norman Sell - As Love is my Witness
DYEAR=1996
DGENRE=
TTITLE0=I Must Have Been A Fool
TTITLE1=Ever Fallen In Love With Someone
TTITLE2=We Ran Out Of Time
TTITLE3=As Love Is My Witness
TTITLE4=I Spent A Life Time
TTITLE5=Don't Come Back This Time
TTITLE6=Only Love
TTITLE7=I Didn't Think IT Would Hurt
TTITLE8=One More Night Of Loving You
TTITLE9=This Is The Life
TTITLE10=Now I Know
TTITLE11=I Still Believe In You
TTITLE12=Hopeless Wishing
EXTD=
EXTT0=
EXTT1=
EXTT2=
EXTT3=
EXTT4=
EXTT5=
EXTT6=
EXTT7=
EXTT8=
EXTT9=
EXTT10=
EXTT11=
EXTT12=
PLAYORDER=
